<svg width="61" height="24" viewBox="0 0 61 24" fill="none" xmlns="http://www.w3.org/2000/svg">
<g clip-path="url(#clip0_299_5478)">
<path d="M48.3125 13.1902C48.3125 15.1506 49.5963 16.9999 52.1113 16.9999C54.5683 16.9999 55.8854 15.1506 55.8854 13.1902V12.7972H54.4405V13.1919C54.4405 14.6493 53.716 15.7501 52.1113 15.7501C50.5066 15.7501 49.7825 14.6199 49.7825 13.1919V7.19775H48.3125V13.1902Z" fill="#201F1E"/>
<path d="M46.3098 7.19727H44.8398V16.8046H46.3098V7.19727Z" fill="#201F1E"/>
<path d="M26.4131 12.0914C26.4131 14.8304 28.6756 16.9855 31.5264 16.9855C34.3772 16.9855 36.6373 14.8304 36.6373 12.0914C36.6373 9.36619 34.3772 7.21143 31.5264 7.21143H31.2888V8.43496H31.5264C33.6198 8.43496 35.2713 10.0338 35.2713 12.0914C35.2713 14.1631 33.6198 15.762 31.5264 15.762C29.4331 15.762 27.7787 14.1631 27.7787 12.0914H26.4131Z" fill="#201F1E"/>
<path d="M54.5795 9.49461C54.5795 10.6763 55.1569 11.3491 56.0791 11.8227C56.7931 12.1849 57.5418 12.2686 58.241 12.519C59.2632 12.8802 59.5733 13.378 59.5733 14.083C59.5733 15.0484 58.8785 15.6649 57.7327 15.6649H57.5878V16.8064H57.6748C59.7095 16.8064 60.9998 15.5929 60.9998 14.0764C60.9998 13.0808 60.4926 12.0749 59.1556 11.5037C58.4416 11.1972 57.5839 11.0419 56.959 10.7915C56.2747 10.5127 56.0244 10.1342 56.0244 9.50775C56.0244 8.75571 56.679 8.18459 57.6755 8.18459C58.9846 8.18459 59.5954 8.79757 59.6243 9.68902H60.948C60.9925 8.29598 59.9366 7.00049 57.6755 7.00049C55.8161 7.00049 54.5791 8.10122 54.5791 9.49392" fill="#201F1E"/>
<path d="M36.9659 8.46252H39.9037C40.8538 8.46252 41.7746 9.17166 41.7746 10.2267C41.7746 11.242 40.9281 12.0065 39.8591 12.0065H38.3091V13.2719L39.477 13.2608L41.4301 16.8035H43.0486L40.9382 13.0986C42.0412 12.7786 43.1421 11.6883 43.1421 10.2274C43.1421 8.4895 41.8355 7.19678 39.9497 7.19678H36.9648L36.9659 8.46252Z" fill="#201F1E"/>
<path d="M21.8691 8.4628H23.6535V16.8051H25.1083V8.4628H29.2979V7.19775H21.8691V8.4628Z" fill="#201F1E"/>
<path d="M7.17285 16.8051H8.59826L11.7758 8.85197L15.0573 16.8051H16.5867L12.5329 7.19775H11.0184L7.17285 16.8051Z" fill="#201F1E"/>
<path d="M1.32395 9.49255C1.32395 10.6054 1.7992 11.3564 2.77942 11.8293C3.4923 12.1769 4.2646 12.2745 4.96263 12.5246C5.70521 12.7889 5.9874 13.0116 6.091 13.4012H7.59103C7.3831 12.5803 6.80388 11.9137 5.91278 11.5231C5.19989 11.2173 4.2943 11.0503 3.67053 10.7998C2.98734 10.5231 2.77942 10.1325 2.77942 9.50639C2.77942 8.75539 3.43145 8.1853 4.42797 8.1853C5.73456 8.1853 6.34348 8.79724 6.37318 9.68731H7.69499C7.73954 8.29634 6.68543 7.00293 4.42797 7.00293C2.5715 7.00293 1.32395 8.10159 1.32395 9.49359M1.00228 13.8177C0.957726 15.3743 2.05277 16.8078 4.53193 16.8078H4.62104V15.6403H4.53193C3.21012 15.6403 2.38349 14.8336 2.38349 13.8183V13.305H1.00228V13.8177Z" fill="#201F1E"/>
<path d="M15.0059 8.46252H17.999C18.9492 8.46252 19.8696 9.17166 19.8696 10.2267C19.8696 11.242 19.0234 12.0065 17.9545 12.0065H16.349V13.2719L17.5723 13.2608L19.5255 16.8035H21.144L19.0347 13.0986C20.1377 12.7786 21.2385 11.6883 21.2385 10.2274C21.2385 8.4895 19.9319 7.19678 18.0461 7.19678H15.0059V8.46252Z" fill="#201F1E"/>
</g>
<defs>
<clipPath id="clip0_299_5478">
<rect width="60" height="24" fill="white" transform="translate(0.5)"/>
</clipPath>
</defs>
</svg>
