<svg width="59" height="24" viewBox="0 0 59 24" fill="none" xmlns="http://www.w3.org/2000/svg">
<g clip-path="url(#clip0_299_5452)">
<path fill-rule="evenodd" clip-rule="evenodd" d="M15.9795 5.06738H17.7924V16.4667H15.9795V5.06738Z" fill="#201F1E"/>
<path fill-rule="evenodd" clip-rule="evenodd" d="M8.90431 9.18313C8.90431 8.91337 8.72987 8.76651 8.52961 8.76651C8.33032 8.76651 8.15137 8.90914 8.15137 9.18313V14.6732C8.15137 14.9468 8.33023 15.0898 8.52961 15.0898C8.72996 15.0898 8.90431 14.9404 8.90431 14.6732V12.8741H10.7155V14.5324C10.7155 15.8777 9.72002 16.5788 8.52121 16.5788C7.37465 16.5788 6.33984 15.9002 6.33984 14.5324V9.32275C6.33984 7.95789 7.37474 7.27734 8.52121 7.27734C9.69978 7.27734 10.7155 7.97904 10.7155 9.32275V10.8078H8.90431V9.18313Z" fill="#201F1E"/>
<path fill-rule="evenodd" clip-rule="evenodd" d="M12.9693 9.43021C12.9693 9.15632 13.1476 9.01369 13.347 9.01369C13.5471 9.01369 13.7223 9.1614 13.7223 9.43021V16.4676H15.5352V8.92762C15.5352 7.69891 14.7859 7.27562 14.214 7.27562C13.5751 7.27562 13.1262 7.76638 13.0024 8.01556H12.973V5.06738H11.1602V16.4676H12.9692L12.9693 9.43021Z" fill="#201F1E"/>
<path fill-rule="evenodd" clip-rule="evenodd" d="M20.7994 14.5091C20.7994 14.7773 20.6242 14.9259 20.4241 14.9259C20.2253 14.9259 20.0463 14.783 20.0463 14.5091V7.3833H18.2344V14.95C18.2344 15.9533 18.8855 16.5789 19.5841 16.5789C20.292 16.5789 20.6763 16.0335 20.785 15.8338H20.8259L20.8583 16.4677H22.6114V7.3833H20.7995V14.5091H20.7994Z" fill="#201F1E"/>
<path fill-rule="evenodd" clip-rule="evenodd" d="M24.8659 16.4674H23.0537V7.38297H24.8485L24.8667 8.01664H24.9029C25.0359 7.73786 25.4671 7.27539 26.1205 7.27539C26.7973 7.27539 27.2324 7.82938 27.3253 8.15532H27.3509C27.4862 7.82393 27.9606 7.27539 28.6471 7.27539C29.3406 7.27539 30.0051 7.77535 30.0051 9.01186V16.4674H28.1924V9.34006C28.1924 9.06551 28.015 8.9226 27.8154 8.9226C27.6151 8.9226 27.4385 9.07002 27.4385 9.34006V16.4674H25.6173V9.34335C25.6173 9.06871 25.4367 8.92589 25.2375 8.92589C25.0372 8.92589 24.8658 9.07387 24.8658 9.34335V16.4674H24.8659Z" fill="#201F1E"/>
<path fill-rule="evenodd" clip-rule="evenodd" d="M33.4567 7.27562C32.8502 7.27497 32.4138 7.82097 32.2996 8.02007H32.2608V5.06738H30.4482V16.4676H32.2406L32.2608 15.8337H32.2996C32.3902 16.0783 32.7791 16.5752 33.4439 16.5761C34.2113 16.5772 34.8352 15.8744 34.8352 14.8118V8.92762C34.8352 7.90572 34.1846 7.27562 33.4567 7.27562ZM33.0163 14.5121C33.0163 14.7813 32.8411 14.9291 32.64 14.9291C32.4409 14.9291 32.2617 14.7855 32.2617 14.5121V9.34621C32.2617 9.07223 32.4409 8.9296 32.64 8.9296C32.841 8.9296 33.0163 9.07796 33.0163 9.34621V14.5121Z" fill="#201F1E"/>
<path fill-rule="evenodd" clip-rule="evenodd" d="M37.0899 14.6776C37.0899 14.9515 37.2697 15.0945 37.4691 15.0945C37.6686 15.0945 37.8436 14.9468 37.8436 14.6776V12.8741H39.6553V14.5309C39.6553 15.9009 38.5945 16.5789 37.4615 16.5789C36.3141 16.5789 35.2754 15.9009 35.2754 14.5309V9.32595C35.2754 7.96043 36.3125 7.27734 37.46 7.27734C38.6376 7.27734 39.6552 7.97584 39.6552 9.32595V12.2613H37.0897V14.6776H37.0899ZM37.8437 10.8759V9.18473C37.8437 8.916 37.6687 8.7682 37.4692 8.7682C37.2698 8.7682 37.09 8.91008 37.09 9.18473L37.0916 10.8759H37.8437Z" fill="#201F1E"/>
<path fill-rule="evenodd" clip-rule="evenodd" d="M42.2927 8.92739C42.0942 8.92739 41.9134 9.07002 41.9134 9.34485V16.4674H40.0996V7.38297H41.8771L41.9119 8.01532H41.9521C42.1232 7.76285 42.5607 7.27539 43.1663 7.27539C43.8682 7.27539 44.4808 7.8804 44.4808 8.84132V12.2513H42.667V9.28453C42.667 9.0672 42.4715 8.92739 42.2887 8.92739H42.2927Z" fill="#201F1E"/>
<path fill-rule="evenodd" clip-rule="evenodd" d="M51.5502 14.6776C51.5502 14.9515 51.7306 15.0945 51.9295 15.0945C52.1295 15.0945 52.3042 14.9468 52.3042 14.6776V12.8741H54.1161V14.5309C54.1161 15.9009 53.0533 16.5789 51.9219 16.5789C50.7744 16.5789 49.7373 15.9009 49.7373 14.5309V9.32595C49.7373 7.96043 50.7729 7.27734 51.9204 7.27734C53.0977 7.27734 54.1161 7.97584 54.1161 9.32595V12.2613H51.5502V14.6776ZM52.3042 10.8759V9.18473C52.3042 8.916 52.1295 8.7682 51.9295 8.7682C51.7306 8.7682 51.5502 8.91008 51.5502 9.18473L51.5518 10.8759H52.3042Z" fill="#201F1E"/>
<path fill-rule="evenodd" clip-rule="evenodd" d="M56.7482 8.92739C56.547 8.92739 56.3681 9.07002 56.3681 9.34485V16.4674H54.5537V7.38297H56.3303L56.3666 8.01532H56.4058C56.5772 7.76285 57.0154 7.27539 57.6213 7.27539C58.3235 7.27539 58.9364 7.8804 58.9364 8.84132V12.2513H57.1212V9.28453C57.1212 9.0672 56.9256 8.92739 56.7434 8.92739H56.7482Z" fill="#201F1E"/>
<path fill-rule="evenodd" clip-rule="evenodd" d="M47.4859 13.9428C47.4859 14.2109 47.3121 14.3587 47.1112 14.3587C46.9123 14.3587 46.7329 14.2168 46.7329 13.9428V9.34748C46.7329 9.07453 46.9123 8.93256 47.1112 8.93256C47.3121 8.93256 47.4859 9.07904 47.4859 9.34748V13.9428ZM47.4859 17.1328C47.4859 17.4016 47.3111 17.5487 47.1112 17.5487C46.9123 17.5487 46.7329 17.4058 46.7329 17.1328V16.3961H44.9229V16.8968C44.9229 18.3168 45.8444 18.9486 47.1052 18.9486C48.3559 18.9486 49.2994 18.3168 49.2994 16.8968V7.38297H47.513L47.4859 8.01983H47.442C47.3474 7.81171 46.9231 7.27539 46.2471 7.27539C45.5934 7.27539 44.9229 7.80918 44.9229 8.79575V14.2213C44.9229 15.2603 45.5506 15.8669 46.2577 15.8669C46.9299 15.8669 47.3211 15.3893 47.4323 15.2001H47.4858L47.4859 17.1328Z" fill="#201F1E"/>
<path fill-rule="evenodd" clip-rule="evenodd" d="M3.08234 14.5308C3.08234 14.8053 3.262 14.9482 3.46155 14.9482C3.66145 14.9482 3.83545 14.7995 3.83545 14.5308V13.4535C3.83545 12.5939 3.66225 12.2817 3.06165 11.6818C2.54973 11.1699 2.29138 10.9066 1.96062 10.5752C1.53747 10.1499 1.04933 9.55767 1.04933 8.45101V7.08549C1.0488 5.58665 2.2225 5.02881 3.45907 5.02881C4.69175 5.02881 5.85582 5.59886 5.85582 7.07488V8.8354H3.83536V7.12721C3.83536 6.85811 3.66083 6.71031 3.46066 6.71031C3.2612 6.71031 3.08234 6.85351 3.08234 7.12721V7.94739C3.08234 8.65782 3.29161 8.97023 3.8458 9.53258C4.06869 9.75931 4.57318 10.2809 4.9615 10.6833C5.65582 11.4061 5.89587 12.0581 5.89587 12.9548V14.4809C5.89587 16.0677 4.69405 16.6248 3.45907 16.6248C2.20818 16.6249 1.04199 16.0677 1.04199 14.5564V12.3704H3.08234V14.5308Z" fill="#201F1E"/>
</g>
<defs>
<clipPath id="clip0_299_5452">
<rect width="58" height="24" fill="white" transform="translate(0.5)"/>
</clipPath>
</defs>
</svg>
