<svg width="52" height="24" viewBox="0 0 52 24" fill="none" xmlns="http://www.w3.org/2000/svg">
<path d="M47.2331 4.1709L47.0767 4.19497L46.9437 4.2431L46.7873 4.30728L46.6543 4.35542L46.5213 4.44367L46.4118 4.53192L46.3023 4.64423L46.1928 4.75655L46.1068 4.86887L46.0442 5.00525L45.9816 5.14164L45.919 5.30209L45.8721 5.43848L45.8486 5.59893V5.93588L45.8721 6.09633L45.919 6.25679L45.9816 6.39317L46.0442 6.52956L46.1068 6.66594L46.1928 6.77826L46.3023 6.89058L46.4118 7.00289L46.5213 7.09114L46.6543 7.17939L46.7873 7.24357L46.9437 7.29171L47.0767 7.33985L47.2331 7.36391H47.5617L47.7181 7.33985L47.8511 7.29171L48.0075 7.24357L48.1405 7.17939L48.2735 7.09114L48.383 7.00289L48.4925 6.91465L48.602 6.80233L48.6881 6.69001L48.7506 6.55363L48.8132 6.41724L48.8758 6.28085L48.8993 6.1204L48.9462 5.95995V5.57486L48.8993 5.41441L48.8758 5.27802L48.8132 5.12559L48.7506 4.98921L48.6881 4.85282L48.602 4.74051L48.4925 4.62819L48.383 4.53994L48.2735 4.45169L48.1405 4.36344L48.0075 4.29926L47.8511 4.25112L47.7181 4.20299L47.5617 4.17892H47.2331V4.1709ZM47.1706 6.95476L46.9281 6.89058L46.7325 6.77826L46.5604 6.61781L46.404 6.44131L46.2945 6.24074L46.2319 5.99204L46.2085 5.74334L46.2319 5.49464L46.2945 5.27L46.404 5.06944L46.5604 4.89294L46.7404 4.73248L46.9359 4.62017L47.1784 4.55599L47.4209 4.53192L47.6634 4.55599L47.8824 4.62017L48.0779 4.73248L48.25 4.89294L48.4065 5.06944L48.516 5.27L48.5785 5.5187L48.602 5.76741L48.5785 6.01611L48.516 6.24074L48.4065 6.44131L48.25 6.61781L48.0701 6.77826L47.8746 6.89058L47.6555 6.95476L47.4131 6.97883L47.1706 6.95476ZM27.3885 4.1709V17.3842H29.6256V13.2766H30.5017L33.4428 17.3842H36.1805L32.1287 12.2016L35.6799 7.35589H33.0517L30.2905 11.0142H29.6256V4.1709H27.3885ZM12.6752 17.3842H14.9592V4.1709H12.6752V17.3842ZM46.7325 4.90898V6.60978H47.0845V5.91181H47.4131L47.7885 6.60978H48.1796L47.7651 5.89577L47.8746 5.8717L47.9606 5.84763L48.0466 5.82357L48.1092 5.77543L48.1562 5.71125L48.2031 5.623L48.2266 5.53475V5.42243L48.2031 5.27L48.1796 5.15768L48.117 5.06944L48.0545 5.00525L47.945 4.95712L47.8354 4.93305L47.5695 4.90898H46.7325ZM47.0845 5.18175H47.4991L47.6555 5.20582L47.7651 5.22989L47.812 5.25396L47.8589 5.30209L47.8824 5.35023V5.39836L47.8589 5.53475L47.8354 5.58289L47.812 5.63102L47.7025 5.65509L47.593 5.67916H47.0845V5.18175ZM40.3497 7.37996H39.9117L39.4971 7.4281L39.106 7.47623L38.7305 7.54041L38.3785 7.62866L38.0735 7.74098L37.7919 7.89341L37.5259 8.05386L37.2835 8.25443L37.0879 8.50313L36.9315 8.7759L36.7985 9.06472L36.7124 9.42574L36.6499 9.81082V10.6452L36.7124 11.0303L36.775 11.3431L36.908 11.632L37.041 11.9047L37.2365 12.1294L37.4321 12.3299L37.6746 12.5064L37.9562 12.6428L38.2377 12.7792L38.5897 12.8915L38.9417 12.9798L39.3328 13.044L39.7474 13.1081L40.1854 13.1563L40.6704 13.2044L41.3275 13.2525L41.875 13.3167L42.3131 13.405L42.493 13.4692L42.6494 13.5333L42.7824 13.6216L42.8919 13.7098L42.9779 13.7981L43.0405 13.9104L43.0874 14.0227L43.1344 14.1591L43.1578 14.2955V14.6324L43.1344 14.7929L43.1109 14.9293L43.064 15.0657L43.0014 15.202L42.9154 15.3144L42.8293 15.4026L42.7433 15.4909L42.6103 15.5791L42.4773 15.6433L42.3209 15.6914L42.1644 15.7396L41.7733 15.7877L41.3118 15.8118H40.1933L39.8413 15.7476L39.7083 15.6995L39.5519 15.6513L39.4423 15.5871L39.3328 15.4989L39.2468 15.4106L39.1842 15.2983L39.1216 15.1619L39.0591 15.0015L39.0356 14.841L38.9887 14.6645L38.9652 14.2153H36.642V14.9774L36.6655 15.202L36.689 15.4267L36.7515 15.6032L36.7985 15.8037L36.8845 15.9642L36.9706 16.1247L37.0566 16.2851L37.1661 16.4215L37.2756 16.5579L37.3851 16.6702L37.5181 16.7584L37.8232 16.9349L38.1282 17.0954L38.4802 17.2077L38.8322 17.296L39.2077 17.3441L39.5831 17.3922L39.9742 17.4163L40.3654 17.4404H41.57L42.008 17.4163L42.4226 17.3922L42.8371 17.328L43.2126 17.2639L43.5646 17.1756L43.8696 17.0392L44.1747 16.8788L44.4407 16.7023L44.6831 16.4776L44.9022 16.2049L45.0586 15.9161L45.215 15.555L45.3011 15.17L45.3637 14.7207L45.3871 14.2313L45.3637 13.8703L45.3011 13.5333L45.215 13.2204L45.0821 12.9477L44.9256 12.699L44.7301 12.4743L44.5111 12.2978L44.2686 12.1213L44.0026 11.985L43.6976 11.8486L43.3925 11.7603L43.0405 11.6721L42.6885 11.6079L42.3131 11.5437L41.5465 11.4795L40.7799 11.4154L40.162 11.3512L39.7005 11.2629L39.5206 11.1987L39.3876 11.1506L39.2546 11.0864L39.1686 10.9982L39.0825 10.934L39.0356 10.8217L38.9887 10.7334L38.9652 10.597L38.9417 10.3243L38.9652 9.98732L38.9887 9.82687L39.0121 9.69048L39.0591 9.57817L39.106 9.46585L39.192 9.3776L39.2781 9.28935L39.3876 9.22517L39.4971 9.17703L39.6535 9.1289L39.8335 9.08076L40.2715 9.03263L40.819 9.00856L41.39 9.03263L41.8281 9.08076L42.0002 9.1289L42.1801 9.17703L42.3131 9.24122L42.446 9.3054L42.5555 9.36958L42.6416 9.45783L42.7042 9.54608L42.7511 9.65839L42.798 9.79478L42.8215 9.93116L42.845 10.244H45.0351L45.0821 9.81884L45.0586 9.61828L45.0351 9.41771L45.0117 9.21715L44.9647 9.04065L44.9022 8.8802L44.8396 8.71974L44.7535 8.58336L44.6675 8.44697L44.558 8.33465L44.4485 8.22234L44.1825 8.02177L43.9009 7.86132L43.5959 7.72493L43.2674 7.61262L42.9388 7.54844L42.5868 7.48425L42.2114 7.46019L41.5074 7.41205L40.8034 7.38798C40.8112 7.35589 40.3497 7.37996 40.3497 7.37996ZM20.6146 7.37996L20.0905 7.4281L19.5821 7.51635L19.144 7.62866L18.7529 7.78911L18.5574 7.87736L18.3853 7.98968L18.2132 8.102L18.0568 8.21431L17.9238 8.3507L17.7908 8.48708L17.6578 8.64754L17.5249 8.82404L17.4388 9.00054L17.3293 9.17703L17.1494 9.57817L17.0164 10.0515L16.9069 10.565L16.8443 11.1265L16.7974 11.7363L16.7739 12.4102L16.7974 13.0841L16.8443 13.6938L16.9069 14.2794L17.0164 14.7688L17.1494 15.2422L17.3058 15.6433L17.4153 15.8198L17.5249 15.9963L17.6344 16.1567L17.7673 16.3172L17.9003 16.4696L18.0333 16.5819L18.1897 16.7183L18.3618 16.8306L18.5339 16.9189L18.706 17.0071L19.1206 17.1596L19.5586 17.2719L20.0592 17.3601L20.5833 17.4083H21.6784L22.1399 17.3842L22.5779 17.3601L22.9925 17.312L23.3914 17.2478L23.7669 17.1355L24.1189 17.0232L24.4239 16.8868L24.7055 16.7103L24.948 16.5097L25.167 16.2851L25.3391 16.0123L25.4721 15.6995L25.5816 15.3384L25.6442 14.9614L25.6677 14.5121V14.1511H23.3601V14.5522L23.3367 14.7287L23.2897 14.9052L23.2272 15.0416L23.1646 15.178L23.0785 15.2662L22.969 15.3785L22.8361 15.4427L22.7031 15.5069L22.5232 15.5711L22.3511 15.6192L22.1555 15.6674L21.7175 15.6914L21.1934 15.7155H20.9118L20.6459 15.6914L20.4034 15.6433L20.1844 15.5952L19.9888 15.5069L19.8167 15.4187L19.6916 15.3224L19.5586 15.1619L19.4491 14.9854L19.3631 14.7849L19.277 14.5362L19.2144 14.2634L19.1675 13.9746L19.144 13.6136L19.1206 13.2285V12.8033H25.6755V12.1534L25.652 11.5437L25.6051 10.9821L25.5425 10.4446L25.433 9.97127L25.3 9.54608L25.1201 9.14494L24.9011 8.80799L24.7916 8.63149L24.6586 8.49511L24.5256 8.33465L24.3692 8.22234L24.2127 8.08595L24.0407 7.97363L23.6887 7.79714L23.2741 7.63668L22.8361 7.5003L22.3276 7.41205L21.7801 7.36391L21.1856 7.33985L20.6146 7.37996ZM19.1206 11.0624L19.144 10.7735L19.191 10.5008L19.2379 10.2761L19.3005 10.0515L19.3631 9.875L19.4726 9.71455L19.5821 9.5541L19.715 9.44178L19.8715 9.32946L20.0436 9.24122L20.2235 9.17703L20.4425 9.1289L20.685 9.08076L20.9509 9.05669H21.5219L21.7879 9.08076L22.0304 9.1289L22.2494 9.17703L22.445 9.24122L22.617 9.32946L22.7735 9.44178L22.9299 9.5541L23.0394 9.71455L23.1489 9.875L23.2115 10.0515L23.2741 10.2761L23.3367 10.5008L23.3601 10.7735L23.3836 11.0624V11.3512H19.1284L19.1206 11.0624ZM5.85431 7.37996L5.33023 7.4281L4.82179 7.51635L4.38375 7.62866L3.96918 7.78911L3.7971 7.87736L3.62501 7.98968L3.4451 8.102L3.29648 8.21431L3.14004 8.3507L3.00707 8.48708L2.87409 8.64754L2.76458 8.82404L2.65507 9.00054L2.56903 9.17703L2.39694 9.57817L2.26397 10.0515L2.15446 10.565L2.09188 11.1265L2.04495 11.7363L2.02148 12.4102L2.04495 13.0841L2.06842 13.6938L2.15446 14.2794L2.2405 14.7688L2.37348 15.2422L2.55339 15.6433L2.63943 15.8198L2.74894 15.9963L2.88191 16.1567L2.99142 16.3172L3.1244 16.4696L3.28084 16.5819L3.43728 16.7183L3.59372 16.8306L3.77363 16.9189L3.96918 17.0071L4.36029 17.1596L4.82179 17.2719L5.30676 17.3601L5.85431 17.4083H6.92593L7.38744 17.3842L7.84894 17.3601L8.26351 17.312L8.65461 17.2478L9.03007 17.1355L9.3586 17.0232L9.66366 16.8868L9.94526 16.7103L10.2112 16.5097L10.4068 16.2851L10.5867 16.0123L10.7431 15.6995L10.8292 15.3384L10.8917 14.9614L10.9152 14.5121V14.1511H8.63115V14.5522L8.60768 14.7287L8.56075 14.9052L8.49817 15.0416L8.4356 15.178L8.32609 15.2662L8.21658 15.3785L8.10707 15.4427L7.95063 15.5069L7.79418 15.5711L7.61428 15.6192L7.41872 15.6674L6.95722 15.6914L6.44879 15.7155H6.15937L5.87777 15.6914L5.63529 15.6433L5.43974 15.5952L5.24418 15.5069L5.0721 15.4187L4.91566 15.3063L4.78268 15.1459L4.67317 14.9694L4.58713 14.7688L4.52455 14.5201L4.46198 14.2473L4.41504 13.9585L4.39158 13.5975L4.36029 13.2365V12.8113H10.8996V11.5517L10.8526 10.9902L10.7666 10.4526L10.6805 9.9793L10.5241 9.5541L10.3442 9.15297L10.1486 8.81601L10.0391 8.63952L9.90615 8.50313L9.77317 8.34268L9.61673 8.23036L9.46029 8.09397L9.2882 7.98166L8.93621 7.80516L8.52164 7.64471L8.06014 7.50832L7.57517 7.42007L7.02762 7.37194L6.43314 7.34787C6.44096 7.35589 5.85431 7.37996 5.85431 7.37996ZM4.36029 11.0624L4.38375 10.7735L4.40722 10.5008L4.4698 10.2761L4.51673 10.0515L4.60277 9.875L4.68882 9.71455L4.79833 9.5541L4.9313 9.44178L5.08774 9.32946L5.25983 9.24122L5.45538 9.17703L5.6744 9.1289L5.91688 9.08076L6.18283 9.05669H6.75385L7.0198 9.08076L7.26228 9.1289L7.4813 9.17703L7.67685 9.24122L7.84894 9.32946L8.00538 9.44178L8.13836 9.5541L8.27133 9.71455L8.35737 9.875L8.44342 10.0515L8.50599 10.2761L8.55293 10.5008L8.59986 10.7735L8.62333 11.0624V11.3512H4.36029V11.0624Z" fill="#201F1E"/>
</svg>
