<svg width="52" height="24" viewBox="0 0 52 24" fill="none" xmlns="http://www.w3.org/2000/svg">
<path d="M9.77437 12.5848V16.0329C9.77437 16.9127 10.1883 17.3408 11.0393 17.3408H11.4072C12.2582 17.3408 12.6721 16.9127 12.6721 16.0329V14.3445H14.627V15.9616C14.627 18.1731 13.546 19.3145 11.3842 19.3145H10.9703C8.83144 19.3145 7.72754 18.1969 7.72754 16.2231V7.75758C7.72754 5.28449 8.80845 4.14307 10.9703 4.14307H11.3842C13.523 4.14307 14.627 5.26071 14.627 7.496V12.5611H9.77437V12.5848ZM9.77437 10.5636H12.6491V7.42466C12.6491 6.54481 12.2352 6.11678 11.3842 6.11678H11.0623C10.2113 6.11678 9.79736 6.54481 9.79736 7.42466V10.5636H9.77437Z" fill="#201F1E"/>
<path d="M15.9609 4.33296H17.9848V5.28415C18.4677 4.761 19.2957 4.1665 20.4456 4.1665C22.1704 4.1665 23.0213 5.35549 23.0213 7.0914V16.3655C23.0213 18.1252 22.1704 19.2904 20.4456 19.2904C19.2727 19.2904 18.4677 18.7197 17.9848 18.2203V23H15.9609V4.33296ZM17.9848 16.5557C18.5367 17.0551 19.1807 17.3167 19.8476 17.3167C20.5835 17.3167 21.0205 16.96 21.0205 16.1039V7.35298C21.0205 6.49691 20.6065 6.14022 19.8476 6.14022C19.1807 6.14022 18.5367 6.42557 17.9848 6.90117V16.5557Z" fill="#201F1E"/>
<path d="M24.2393 13.9879C24.2393 12.1568 24.8142 11.4196 26.3551 10.8727L29.0688 9.92153V7.42466C29.0688 6.54481 28.6549 6.06922 27.804 6.06922H27.482C26.6311 6.06922 26.2171 6.54481 26.2171 7.42466V9.51727H24.2623V7.496C24.2623 5.28449 25.3432 4.14307 27.505 4.14307H27.8959C30.0348 4.14307 31.1387 5.26071 31.1387 7.496V19.1243H29.1148V18.1969C28.5629 18.7438 27.804 19.2907 26.6541 19.2907C25.0442 19.2907 24.2853 18.3395 24.2853 16.675V13.9879H24.2393ZM29.0688 16.6274V11.7526L27.229 12.466C26.4931 12.7751 26.2401 13.1556 26.2401 14.0116V16.2707C26.2401 16.9841 26.5851 17.3408 27.229 17.3408C27.85 17.317 28.4019 17.103 29.0688 16.6274Z" fill="#201F1E"/>
<path d="M39.2348 19.1239H37.211V7.2103C37.211 6.47313 36.866 6.14022 36.2451 6.14022C35.6931 6.14022 35.0952 6.35423 34.3822 6.87739V19.1239H32.3584V4.33296H34.3822V5.28415C34.9572 4.71344 35.7391 4.1665 36.843 4.1665C37.8779 4.1665 38.5679 4.59454 38.9358 5.37927C39.6488 4.73722 40.4997 4.1665 41.6726 4.1665C43.2365 4.1665 44.0414 5.16525 44.0414 6.78227V19.1477H42.0176V7.2103C42.0176 6.47313 41.6726 6.14022 41.0517 6.14022C40.4997 6.14022 39.9018 6.35423 39.1888 6.87739V19.1239H39.2348Z" fill="#201F1E"/>
<path d="M5.17456 5.68848V8.42314L1.79385 11.7523L5.17456 15.0339V17.8161L0 12.7748V10.7773L5.17456 5.68848Z" fill="#201F1E"/>
<path d="M51.7917 10.7773V12.7748L46.6172 17.8161V15.0339L49.9979 11.7523L46.6172 8.39936V5.68848L51.7917 10.7773Z" fill="#201F1E"/>
</svg>
