<svg width="71" height="24" viewBox="0 0 71 24" fill="none" xmlns="http://www.w3.org/2000/svg">
<mask id="mask0_299_5488" style="mask-type:luminance" maskUnits="userSpaceOnUse" x="48" y="9" width="9" height="7">
<path d="M50.0781 12.796V11.9395C50.0781 10.8901 50.4895 10.7212 51.6323 10.7212H52.7637C53.8951 10.7212 54.3179 10.9022 54.3179 11.9034V12.7839C54.3179 13.7851 53.8836 13.966 52.7637 13.966H51.6323C50.5124 13.966 50.0781 13.7851 50.0781 12.796ZM50.9238 9.17725C49.9867 9.18931 49.3353 9.26168 48.901 9.61149C48.421 9.99749 48.2725 10.6127 48.2725 11.5656V13.2544C48.2725 14.147 48.4325 14.7139 48.901 15.0878C49.3924 15.4859 50.1238 15.5221 51.1638 15.5221H53.2437C54.2951 15.5221 55.0264 15.4738 55.5064 15.0878C55.9521 14.726 56.135 14.1349 56.135 13.2182V11.4812C56.135 10.5644 55.9521 9.9613 55.5064 9.61149C55.0722 9.26168 54.4208 9.18931 53.4722 9.17725H50.9238Z" fill="white"/>
</mask>
<g mask="url(#mask0_299_5488)">
<path d="M58.7411 13.725C58.7411 13.725 47.7016 18.4293 28.1367 17.4402C28.1367 17.4402 48.0216 19.913 61.7352 13.7129L58.7411 13.725Z" fill="#201F1E"/>
</g>
<mask id="mask1_299_5488" style="mask-type:luminance" maskUnits="userSpaceOnUse" x="48" y="9" width="9" height="7">
<path d="M50.0781 12.796V11.9395C50.0781 10.8901 50.4895 10.7212 51.6323 10.7212H52.7637C53.8951 10.7212 54.3179 10.9022 54.3179 11.9034V12.7839C54.3179 13.7851 53.8836 13.966 52.7637 13.966H51.6323C50.5124 13.966 50.0781 13.7851 50.0781 12.796ZM50.9238 9.17725C49.9867 9.18931 49.3353 9.26168 48.901 9.61149C48.421 9.99749 48.2725 10.6127 48.2725 11.5656V13.2544C48.2725 14.147 48.4325 14.7139 48.901 15.0878C49.3924 15.4859 50.1238 15.5221 51.1638 15.5221H53.2437C54.2951 15.5221 55.0264 15.4738 55.5064 15.0878C55.9521 14.726 56.135 14.1349 56.135 13.2182V11.4812C56.135 10.5644 55.9521 9.9613 55.5064 9.61149C55.0722 9.26168 54.4208 9.18931 53.4722 9.17725H50.9238Z" fill="white"/>
</mask>
<g mask="url(#mask1_299_5488)">
<path d="M58.7411 13.725C58.7411 13.725 47.7016 18.4293 28.1367 17.4402C28.1367 17.4402 48.0216 19.913 61.7352 13.7129L58.7411 13.725Z" stroke="#201F1E" stroke-width="0.53" stroke-miterlimit="3.864"/>
</g>
<path d="M18.0675 13.387V13.4956C18.0675 14.0022 18.2847 14.0867 18.9018 14.0867H21.1303C21.5531 14.0867 21.7359 13.954 21.7359 13.58C21.7359 13.1337 21.4502 13.0613 20.8788 13.0493L18.0904 12.9528C16.7419 12.9045 16.3076 12.5306 16.3076 11.1072C16.3076 10.4317 16.4219 9.97337 16.719 9.65974C17.1419 9.2255 17.7818 9.17725 18.7189 9.17725H21.4274C22.7416 9.17725 23.3245 9.64768 23.3245 10.8419C23.3245 10.9384 23.313 11.059 23.313 11.1796H21.5988V11.1555C21.5988 10.7454 21.4045 10.5403 21.016 10.5403H18.9704C18.4218 10.5403 18.1361 10.5886 18.1361 11.0228C18.1361 11.4088 18.3418 11.5174 18.8332 11.5294L21.7474 11.6018C23.0845 11.638 23.5644 12.1687 23.5644 13.6162C23.5644 14.4003 23.4273 14.8587 22.913 15.2205C22.5588 15.4738 21.9645 15.5221 21.1188 15.5221H18.7532C16.959 15.5221 16.319 15.2326 16.319 13.8816C16.319 13.8092 16.3305 13.6403 16.3419 13.387H18.0675Z" fill="#201F1E"/>
<path d="M25.1414 15.4375L23.29 9.24951H25.0614L26.2613 13.6523L27.747 9.24951H29.3698L30.7754 13.6523L32.0554 9.24951H33.8153L31.8839 15.4375H29.884L28.5355 11.1795L27.1756 15.4375H25.1414Z" fill="#201F1E"/>
<path d="M37.6216 12.9165L36.5016 10.7332L35.4045 12.9165H37.6216ZM32.2275 15.4375L35.3931 9.24951H37.6559L40.7757 15.4375H38.833L38.273 14.4122H34.7303L34.1589 15.4375H32.2275Z" fill="#201F1E"/>
<path d="M46.0324 11.4209C46.0324 10.9263 45.7352 10.7212 45.0953 10.7212H43.6782C42.524 10.7212 42.2497 10.878 42.2497 11.9395V12.796C42.2497 13.761 42.6382 13.966 43.6782 13.966H44.7067C45.6895 13.966 46.0781 13.8575 46.0781 13.1096V13.0493H47.8723C47.8837 13.2061 47.8837 13.3508 47.8837 13.4956C47.8837 14.2676 47.7123 14.7742 47.3009 15.0999C46.8666 15.4497 46.1695 15.5221 45.1524 15.5221H43.1754C42.2611 15.5221 41.6097 15.4738 41.1069 15.0637C40.6155 14.6536 40.4326 14.0987 40.4326 13.2544V11.5656C40.4326 9.708 41.1869 9.17725 43.1754 9.17725H45.1524C46.1695 9.17725 46.8552 9.2255 47.278 9.57531C47.6552 9.87687 47.8151 10.3956 47.8151 11.1314C47.8151 11.2399 47.8151 11.3605 47.8037 11.4812H46.0209V11.4209H46.0324Z" fill="#201F1E"/>
<path d="M2.37695 15.4375V9.24951H4.99398L7.06246 13.1216L9.17665 9.24951H11.7594V15.4375H10.0338V11.0348L7.64529 15.4375H6.47963L4.10259 11.0348V15.4375H2.37695Z" fill="#201F1E"/>
<path d="M12.3076 9.24951H14.0104C13.7361 10.0094 13.0962 10.5764 12.3076 10.7573V9.24951Z" fill="#201F1E"/>
<path d="M12.3076 15.4378V11.2763C12.9933 11.1436 13.599 10.7817 14.0218 10.251V15.4378H12.3076Z" fill="#201F1E"/>
<path d="M63.7003 13.375C63.7003 13.375 52.798 18.5377 33.2217 18.3688C33.2217 18.3688 53.1065 20.1058 66.5688 13.375H63.7003Z" fill="#201F1E"/>
<path d="M68.0888 13.375C68.0888 13.375 57.3578 18.9358 37.793 19.4665C37.793 19.4665 57.6892 20.5642 70.9458 13.375H68.0888Z" fill="#201F1E"/>
<path d="M52.763 13.9662C53.883 13.9662 54.3172 13.7852 54.3172 12.7841V11.9156C54.3172 10.9144 53.883 10.7334 52.763 10.7334H51.6316C50.4888 10.7334 50.0774 10.9023 50.0774 11.9517V12.8082C50.0774 13.7852 50.5117 13.9662 51.6316 13.9662H52.763ZM48.9117 15.0759C48.4432 14.702 48.2832 14.1351 48.2832 13.2424V11.5658C48.2832 10.6128 48.4318 10.0097 48.9117 9.6237C49.3803 9.24977 50.1003 9.18945 51.1516 9.18945H53.2316C54.2829 9.18945 55.0258 9.24977 55.4829 9.6237C55.9172 9.98557 56.1 10.5766 56.1 11.4934V13.2183C56.1 14.135 55.9286 14.714 55.4829 15.088C55.0029 15.474 54.2829 15.5222 53.2316 15.5222H51.1631C50.1346 15.5102 49.4146 15.4619 48.9117 15.0759Z" fill="#201F1E"/>
<path d="M59.0712 13.3749C59.0712 13.3749 48.0316 18.0792 28.4668 17.0901C28.4668 17.0901 48.3516 19.5629 62.0653 13.3628L59.0712 13.3749Z" fill="#201F1E"/>
</svg>
