<svg width="37" height="24" viewBox="0 0 37 24" fill="none" xmlns="http://www.w3.org/2000/svg">
<g clip-path="url(#clip0_299_5446)">
<path d="M17.492 18.5347C10.6023 13.2342 7.72808 6.42773 0.5 6.42773V18.5347H17.492Z" fill="#201F1E"/>
<path d="M32.1449 6.24599C30.738 6.24599 29.4802 6.83404 28.7508 7.69743V2.62256H27.0498V14.7295H28.4502L28.6298 13.4569C29.1238 14.0923 30.13 14.9111 32.0632 14.9111C34.6602 14.9111 36.5002 13.1272 36.5002 10.5986C36.5002 8.06998 34.7347 6.24599 32.1452 6.24599H32.1449ZM31.679 13.3946C29.8056 13.3946 28.6871 12.323 28.6871 10.581C28.6871 8.83894 29.833 7.76731 31.679 7.76731C33.5251 7.76731 34.671 8.83894 34.671 10.581C34.671 12.323 33.5251 13.3946 31.679 13.3946Z" fill="#201F1E"/>
<path d="M25.7899 2.62256H24.0889V14.7295H25.7899V2.62256Z" fill="#201F1E"/>
<path d="M19.2805 13.4999C18.0399 13.4999 16.7374 12.9184 16.0379 12.0827L14.8906 13.1318C16.0095 14.3501 17.4729 14.9112 19.207 14.9112C21.587 14.9112 23.0806 13.8925 23.0806 12.1747C23.0806 8.60383 16.6247 10.837 16.6247 8.82452C16.6247 8.08807 17.5186 7.6709 18.9107 7.6709C20.1513 7.6709 21.047 8.05729 21.6039 8.60971L22.7512 7.56056C21.9916 6.77534 20.5613 6.24609 18.9536 6.24609C16.5484 6.24609 14.9662 7.33952 14.9662 9.06977C14.9662 12.5424 21.3965 10.3337 21.3965 12.3584C21.3965 13.0702 20.5585 13.4995 19.2801 13.4995L19.2805 13.4999Z" fill="#201F1E"/>
<path d="M36.3108 17.3237H17.9238C21.7193 20.2996 27.547 23.3772 36.3108 23.3772V17.3237Z" fill="#201F1E"/>
</g>
<defs>
<clipPath id="clip0_299_5446">
<rect width="36" height="24" fill="white" transform="translate(0.25)"/>
</clipPath>
</defs>
</svg>
