<svg width="77" height="24" viewBox="0 0 77 24" fill="none" xmlns="http://www.w3.org/2000/svg">
<path d="M17.0532 8.50025H13.7705V7.35303H21.6689V8.50025H18.3862V16.7447H17.0532V8.50025Z" fill="#201F1E"/>
<path d="M23.1011 9.66699C25.031 9.66699 26.0655 11.067 26.0655 12.817C26.0655 12.992 26.0258 13.3809 26.0258 13.3809H21.0519C21.1514 14.8781 22.1661 15.617 23.4394 15.617C24.6132 15.617 25.4687 14.8198 25.4687 14.8198L26.0059 15.792C26.0059 15.792 24.9713 16.7642 23.3598 16.7642C21.2111 16.7642 19.7189 15.2281 19.7189 13.2642C19.6991 11.0281 21.1713 9.66699 23.1011 9.66699ZM24.7724 12.3892C24.7326 11.242 24.0163 10.6781 23.121 10.6781C22.1263 10.6781 21.2907 11.3003 21.0917 12.3892H24.7724Z" fill="#201F1E"/>
<path d="M30.323 9.62793C32.0738 9.62793 32.9293 10.6002 32.9293 10.6002L32.2927 11.514C32.2927 11.514 31.5764 10.7168 30.4026 10.7168C29.0099 10.7168 28.0152 11.7279 28.0152 13.1279C28.0152 14.489 29.0099 15.539 30.4424 15.539C31.7356 15.539 32.5513 14.6252 32.5513 14.6252L33.0885 15.5974C33.0885 15.5974 32.1534 16.6863 30.3429 16.6863C28.1942 16.6863 26.6623 15.189 26.6623 13.1863C26.6424 11.164 28.1743 9.62793 30.323 9.62793Z" fill="#201F1E"/>
<path d="M33.7451 7.31379H35.0383V10.736C35.0383 11.0471 34.9985 11.2999 34.9985 11.2999H35.0383C35.3566 10.6388 36.2121 9.80268 37.6048 9.80268C39.2163 9.80268 39.9922 10.6777 39.9922 12.3888V16.686H38.699V12.6416C38.699 11.6693 38.4802 10.9305 37.4058 10.9305C36.3713 10.9305 35.5158 11.6305 35.1975 12.6027C35.098 12.8749 35.098 13.1666 35.098 13.4777V16.6277H33.8048V7.2749H33.7451V7.31379Z" fill="#201F1E"/>
<path d="M41.5047 14.5862C41.5047 14.5862 42.4994 15.5974 43.9319 15.5974C44.8272 15.5974 45.5434 15.1112 45.5434 14.2362C45.5434 12.214 40.9675 12.6612 40.9675 9.80291C40.9675 8.36402 42.2209 7.2168 44.0115 7.2168C45.7623 7.2168 46.6974 8.13069 46.6974 8.13069L46.1204 9.21958C46.1204 9.21958 45.2649 8.42235 44.0513 8.42235C43.0565 8.42235 42.3403 9.04458 42.3403 9.78347C42.3403 11.7085 46.9162 11.1835 46.9162 14.1779C46.9162 15.6168 45.8021 16.764 43.912 16.764C41.8827 16.764 40.7686 15.539 40.7686 15.539L41.5047 14.5862Z" fill="#201F1E"/>
<path d="M47.5127 9.97774H48.8059V10.8527C48.8059 11.125 48.7661 11.3388 48.7661 11.3388H48.8059C49.1242 10.5416 50.0991 9.80273 51.1933 9.80273C52.3671 9.80273 53.0237 10.3277 53.2624 11.3388H53.3022C53.6603 10.5027 54.6551 9.80273 55.7692 9.80273C57.341 9.80273 58.0572 10.6777 58.0572 12.3888V16.6861H56.764V12.6416C56.764 11.6694 56.585 10.9305 55.5504 10.9305C54.5556 10.9305 53.8394 11.7277 53.6206 12.6416C53.5211 12.9138 53.5211 13.2055 53.5211 13.5555V16.6277H52.2279V12.5833C52.2279 11.7083 52.0886 10.8722 51.0143 10.8722C50.0195 10.8722 49.3033 11.7083 49.0446 12.6222C48.9452 12.8944 48.9452 13.1861 48.9452 13.4972V16.5694H47.5127V9.97774Z" fill="#201F1E"/>
<path d="M58.9131 7.35303H60.266V8.67525H58.9131V7.35303ZM58.9131 9.97803H60.2063V16.6864H58.9131V9.97803Z" fill="#201F1E"/>
<path d="M61.8377 11.0279H60.9424V9.97791H61.8377V8.0918H63.1309V9.97791H64.7822V11.0279H63.1309V14.0612C63.1309 15.4612 64.1256 15.6362 64.6031 15.6362C64.7822 15.6362 64.9214 15.5974 64.9214 15.5974V16.7446C64.9214 16.7446 64.7424 16.7835 64.4639 16.7835C63.5686 16.7835 61.8178 16.5112 61.8178 14.2751V11.0279H61.8377Z" fill="#201F1E"/>
<path d="M65.5576 7.31396H66.9105V10.7362C66.9105 11.0473 66.8707 11.3001 66.8707 11.3001H66.9105C67.2288 10.639 68.0843 9.80285 69.477 9.80285C71.0885 9.80285 71.8644 10.6779 71.8644 12.389V16.6862H70.5712V12.6417C70.5712 11.6695 70.3524 10.9306 69.278 10.9306C68.2435 10.9306 67.388 11.6306 67.0697 12.6029C66.9702 12.8751 66.9702 13.1667 66.9702 13.4779V16.6279H65.677L65.5576 7.31396Z" fill="#201F1E"/>
<path d="M2.19141 8.22803V15.8114L6.05109 12.0002L2.19141 8.22803Z" fill="#201F1E"/>
<path d="M11.8013 15.8112V7.31396H3.12695L11.8013 15.8112Z" fill="#201F1E"/>
<path d="M3.08691 16.6863H10.8461L6.98639 12.9141L3.08691 16.6863Z" fill="#201F1E"/>
<path d="M73.4564 7.35303C74.2124 7.35303 74.8093 7.97525 74.8093 8.71414C74.8093 9.45303 74.2323 10.0752 73.4564 10.0752C72.7402 10.0752 72.1035 9.51136 72.1035 8.71414C72.1632 7.95581 72.7402 7.35303 73.4564 7.35303ZM73.4564 9.84191C74.093 9.84191 74.5705 9.3558 74.5705 8.69469C74.5705 8.03358 74.0732 7.54747 73.4564 7.54747C72.8197 7.54747 72.3423 8.03358 72.3423 8.69469C72.3821 9.37525 72.8396 9.84191 73.4564 9.84191ZM73.0187 8.01414H73.5559C73.8344 8.01414 74.0135 8.18914 74.0135 8.46136C74.0135 8.67525 73.8742 8.81136 73.7349 8.85025C73.7349 8.85025 73.7349 8.85025 73.7747 8.94747L74.0533 9.47247H73.8344L73.5161 8.88914H73.2375V9.41414H73.0187V8.01414ZM73.5161 8.67525C73.6951 8.67525 73.7946 8.57803 73.7946 8.40303C73.7946 8.22803 73.6951 8.13081 73.5161 8.13081H73.2375V8.6558H73.5161V8.67525Z" fill="#201F1E"/>
</svg>
