<svg width="56" height="24" viewBox="0 0 56 24" fill="none" xmlns="http://www.w3.org/2000/svg">
<g clip-path="url(#clip0_299_5510)">
<path d="M12.0539 12.0413L5.30142 14.5792L0 16.6204L3.40422 12.0413L0 7.46191L5.30142 9.44831L12.0539 12.0413Z" fill="#201F1E"/>
<path d="M13.9238 6.05485H22.6575C26.0337 6.05485 26.8706 7.48944 26.8706 8.81361V8.9791C26.8706 10.4134 25.587 11.3239 24.6941 11.4066C26.0054 11.5721 27.4565 12.5653 27.4565 14.4133V14.5788C27.4565 16.1789 26.4799 17.9442 22.7129 17.9442H13.9238V5.99951V6.05485ZM17.6068 8.5377V10.6066H21.7363C22.7129 10.6066 23.0197 10.1375 23.0197 9.58597C23.0197 9.03417 22.6849 8.5377 21.7363 8.5377H17.6068ZM17.6068 12.979V15.2413H21.9597C23.1036 15.2413 23.4107 14.6621 23.4107 14.0549C23.4107 13.4757 23.0759 12.979 21.9597 12.979H17.6068Z" fill="#201F1E"/>
<path d="M33.0083 6.05518L37.947 12.7034V6.05518H41.63V18.0001H37.2772L32.3942 11.4346V18.0001H28.7109V6.05518H33.0083Z" fill="#201F1E"/>
<path d="M46.8482 13.007L41.6582 6.05518H46.2341L48.8291 9.55863L51.4241 6.05518H56L50.81 13.007V17.9722H46.82V13.007H46.8482Z" fill="#201F1E"/>
</g>
<defs>
<clipPath id="clip0_299_5510">
<rect width="56" height="24" fill="white"/>
</clipPath>
</defs>
</svg>
