<svg width="75" height="24" viewBox="0 0 75 24" fill="none" xmlns="http://www.w3.org/2000/svg">
<g clip-path="url(#clip0_299_5468)">
<path d="M12.2828 7.1748L14.152 13.7413L16.1042 7.1748H19.1125L19.6004 16.8267H17.4051L17.1221 9.8631L16.936 9.92164L14.8773 16.6606L13.0642 16.6732L11.1039 9.15186L10.738 16.8267H8.62402L9.27447 7.1748H12.2828Z" fill="#201F1E"/>
<path d="M36.0244 7.1748V10.7745C36.0244 10.7832 36.1374 10.8932 36.1463 10.8932H39.7645V7.1748H42.041V16.8267H39.7645V12.7919H36.1057C36.1317 12.8694 36.0244 12.9636 36.0244 12.9897V16.8267H33.8291V7.1748H36.0244Z" fill="#201F1E"/>
<path d="M6.42803 9.23225C5.55968 8.81294 2.75137 8.33747 2.9278 9.90709C3.01073 10.65 4.99542 11.1239 5.6418 11.4617C7.05572 12.1998 7.73625 13.5629 7.11914 15.0851C6.19143 17.3731 2.44322 17.3193 0.5 16.4229L0.900839 14.6112C1.83667 15.0068 4.31001 15.6927 4.90029 14.5875C5.59302 13.2916 3.5067 12.9308 2.71397 12.5693C1.13419 11.8501 0.0454985 10.4965 0.860186 8.75756C1.78626 6.77892 5.17023 6.62465 6.90693 7.53683L6.42722 9.23225H6.42803Z" fill="#201F1E"/>
<path d="M32.6096 7.1748V8.99442H29.9265V16.8267H27.6499V8.99442H24.9668V7.1748H32.6096Z" fill="#201F1E"/>
<path d="M23.5849 7.1748H21.3896V16.8267H23.5849V7.1748Z" fill="#201F1E"/>
<path d="M46.9189 7.37269C46.9702 7.21763 48.254 7.11003 48.5052 7.09658C50.1045 7.01035 53.2324 6.92886 53.8682 8.75956C54.2015 9.71921 53.9178 10.6393 53.0909 11.2422C52.8551 11.4138 52.7063 11.4225 52.5006 11.5262C52.4144 11.5697 52.425 11.6607 52.447 11.6836C52.4787 11.7153 53.0885 11.883 53.2877 12.0143C53.9129 12.4273 54.2739 13.0428 54.3211 13.7778C54.552 17.4186 49.3785 17.0942 46.9189 16.8276V7.37269ZM49.1955 8.75718V10.9724H50.5371C50.8712 10.9724 51.5225 10.5618 51.6542 10.2398C52.2469 8.7912 50.211 8.47158 49.1955 8.75718ZM49.1955 15.3236H50.5371C50.6135 15.3236 51.203 15.1077 51.3135 15.0507C52.2559 14.561 52.177 13.2026 51.1891 12.7904C51.0631 12.7382 50.4655 12.5547 50.3745 12.5547H49.1955V15.3236Z" fill="#201F1E"/>
<path d="M67.659 16.4227L68.0599 14.611C69.0412 14.9551 69.9535 15.27 71.0259 15.164C72.3975 15.0287 72.613 13.7534 71.3422 13.1181C69.8665 12.3799 67.7354 12.0714 67.7346 9.90446C67.7346 7.20747 71.2292 6.64022 73.3456 7.21301C73.583 7.27709 74.0863 7.39734 74.0611 7.66712C74.0204 8.10304 73.6732 8.73595 73.5911 9.19956C72.7122 8.97883 71.117 8.46934 70.3722 9.14972C69.0437 10.3641 72.065 11.0769 72.7488 11.4322C73.6301 11.8902 74.3806 12.6078 74.4806 13.6236C74.8335 17.1845 70.1218 17.573 67.6582 16.4235L67.659 16.4227Z" fill="#201F1E"/>
<path d="M67.0022 7.1748V8.99442H64.2377V16.8267H62.0425V8.99442H59.3594V7.1748H67.0022Z" fill="#201F1E"/>
<path d="M58.1399 7.1748H55.8633V16.8267H58.1399V7.1748Z" fill="#201F1E"/>
</g>
<defs>
<clipPath id="clip0_299_5468">
<rect width="74" height="24" fill="white" transform="translate(0.75)"/>
</clipPath>
</defs>
</svg>
