<svg width="17" height="17" viewBox="0 0 17 17" fill="none" xmlns="http://www.w3.org/2000/svg">
<g clip-path="url(#clip0_440_4152)">
<path d="M8.5 0.5C4.08171 0.5 0.5 4.08171 0.5 8.5C0.5 12.9183 4.08171 16.5 8.5 16.5C12.9183 16.5 16.5 12.9183 16.5 8.5C16.5 4.08171 12.9183 0.5 8.5 0.5ZM14.9696 7.92471C14.1204 7.89059 12.5136 7.88972 10.6877 8.20899C10.5228 7.81354 10.3543 7.4343 10.185 7.07245C10.2908 7.02309 10.3957 6.9729 10.4986 6.92105C11.7527 6.28903 12.7941 5.47142 13.6058 4.48446C14.3884 5.47544 14.8596 6.66255 14.9696 7.92471ZM12.5377 3.41188C11.7801 4.37694 10.7702 5.15174 9.5157 5.73082C9.37458 5.46491 9.23548 5.21197 9.10049 4.97453C8.40997 3.76011 7.75108 2.79359 7.25819 2.12308C7.66312 2.04512 8.07844 2.00491 8.5 2.00491C9.98481 2.00491 11.3933 2.50017 12.5377 3.41188ZM3.90726 3.90726C4.44913 3.36538 5.06998 2.93125 5.74377 2.61514C6.2168 3.22945 6.99585 4.31317 7.81211 5.75332C7.90541 5.91796 8.0009 6.09087 8.09755 6.27007C7.47034 6.46398 6.79686 6.62007 6.07699 6.7373C4.462 7.00029 3.00653 6.99231 2.18911 6.95491C2.46702 5.81077 3.05349 4.76106 3.90726 3.90726ZM2.00491 8.5C2.00491 8.48461 2.00536 8.46926 2.00547 8.45391C2.28301 8.4687 2.63625 8.48081 3.04803 8.48081C3.91802 8.48081 5.04944 8.42664 6.28008 8.22897C7.16782 8.08634 8.00451 7.88506 8.78326 7.62731C8.92092 7.91896 9.05817 8.22291 9.19342 8.5383C8.1959 8.80662 7.28009 9.15764 6.45871 9.58775C5.12593 10.2856 4.04029 11.1925 3.22294 12.2884C2.432 11.1917 2.00491 9.87876 2.00491 8.5ZM4.26185 13.4224C5.40471 11.7486 7.24709 10.5825 9.75107 9.94633C10.2533 11.3272 10.6829 12.8712 10.9307 14.5264C10.1684 14.8338 9.34666 14.9951 8.5 14.9951C6.92737 14.9951 5.44004 14.4399 4.26185 13.4224ZM13.0927 13.0927C12.853 13.3324 12.5976 13.5508 12.3293 13.7475C12.0723 12.2771 11.6858 10.8982 11.2407 9.64267C12.8182 9.39527 14.2062 9.40144 14.929 9.43037C14.732 10.8122 14.0973 12.0881 13.0927 13.0927Z" fill="white"/>
</g>
<defs>
<clipPath id="clip0_440_4152">
<rect width="16" height="16" fill="white" transform="translate(0.5 0.5)"/>
</clipPath>
</defs>
</svg>
