<svg width="20" height="20" viewBox="0 0 20 20" fill="none" xmlns="http://www.w3.org/2000/svg">
<path d="M10.0001 18.3337C8.8473 18.3337 7.76397 18.1149 6.75008 17.6774C5.73619 17.2399 4.85425 16.6462 4.10425 15.8962C3.35425 15.1462 2.7605 14.2642 2.323 13.2503C1.8855 12.2364 1.66675 11.1531 1.66675 10.0003C1.66675 8.84755 1.8855 7.76421 2.323 6.75033C2.7605 5.73644 3.35425 4.85449 4.10425 4.10449C4.85425 3.35449 5.73619 2.76074 6.75008 2.32324C7.76397 1.88574 8.8473 1.66699 10.0001 1.66699C11.1529 1.66699 12.2362 1.88574 13.2501 2.32324C14.264 2.76074 15.1459 3.35449 15.8959 4.10449C16.6459 4.85449 17.2397 5.73644 17.6772 6.75033C18.1147 7.76421 18.3334 8.84755 18.3334 10.0003V11.2087C18.3334 12.0281 18.0522 12.726 17.4897 13.3024C16.9272 13.8788 16.2362 14.167 15.4167 14.167C14.9306 14.167 14.4723 14.0628 14.0417 13.8545C13.6112 13.6462 13.2501 13.3475 12.9584 12.9587C12.5556 13.3614 12.1008 13.6635 11.5938 13.8649C11.0869 14.0663 10.5556 14.167 10.0001 14.167C8.8473 14.167 7.86466 13.7607 7.05216 12.9482C6.23966 12.1357 5.83341 11.1531 5.83341 10.0003C5.83341 8.84755 6.23966 7.86491 7.05216 7.05241C7.86466 6.23991 8.8473 5.83366 10.0001 5.83366C11.1529 5.83366 12.1355 6.23991 12.948 7.05241C13.7605 7.86491 14.1667 8.84755 14.1667 10.0003V11.2087C14.1667 11.5698 14.2848 11.8753 14.5209 12.1253C14.757 12.3753 15.0556 12.5003 15.4167 12.5003C15.7779 12.5003 16.0765 12.3753 16.3126 12.1253C16.5487 11.8753 16.6667 11.5698 16.6667 11.2087V10.0003C16.6667 8.13921 16.0209 6.56283 14.7292 5.27116C13.4376 3.97949 11.8612 3.33366 10.0001 3.33366C8.13897 3.33366 6.56258 3.97949 5.27091 5.27116C3.97925 6.56283 3.33341 8.13921 3.33341 10.0003C3.33341 11.8614 3.97925 13.4378 5.27091 14.7295C6.56258 16.0212 8.13897 16.667 10.0001 16.667H14.1667V18.3337H10.0001ZM10.0001 12.5003C10.6945 12.5003 11.2848 12.2573 11.7709 11.7712C12.257 11.285 12.5001 10.6948 12.5001 10.0003C12.5001 9.30588 12.257 8.7156 11.7709 8.22949C11.2848 7.74338 10.6945 7.50033 10.0001 7.50033C9.30564 7.50033 8.71536 7.74338 8.22925 8.22949C7.74314 8.7156 7.50008 9.30588 7.50008 10.0003C7.50008 10.6948 7.74314 11.285 8.22925 11.7712C8.71536 12.2573 9.30564 12.5003 10.0001 12.5003Z" fill="#5F6368"/>
</svg>
