<svg width="17" height="17" viewBox="0 0 17 17" fill="none" xmlns="http://www.w3.org/2000/svg">
<path d="M8.50033 8.50004C8.86699 8.50004 9.18088 8.36949 9.44199 8.10837C9.7031 7.84726 9.83366 7.53337 9.83366 7.16671C9.83366 6.80004 9.7031 6.48615 9.44199 6.22504C9.18088 5.96393 8.86699 5.83337 8.50033 5.83337C8.13366 5.83337 7.81977 5.96393 7.55866 6.22504C7.29755 6.48615 7.16699 6.80004 7.16699 7.16671C7.16699 7.53337 7.29755 7.84726 7.55866 8.10837C7.81977 8.36949 8.13366 8.50004 8.50033 8.50004ZM8.50033 13.4C9.85588 12.1556 10.8614 11.025 11.517 10.0084C12.1725 8.99171 12.5003 8.08893 12.5003 7.30004C12.5003 6.08893 12.1142 5.09726 11.342 4.32504C10.5698 3.55282 9.62255 3.16671 8.50033 3.16671C7.3781 3.16671 6.43088 3.55282 5.65866 4.32504C4.88644 5.09726 4.50033 6.08893 4.50033 7.30004C4.50033 8.08893 4.8281 8.99171 5.48366 10.0084C6.13921 11.025 7.14477 12.1556 8.50033 13.4ZM8.50033 15.1667C6.71144 13.6445 5.37533 12.2306 4.49199 10.925C3.60866 9.61949 3.16699 8.41115 3.16699 7.30004C3.16699 5.63337 3.7031 4.3056 4.77533 3.31671C5.84755 2.32782 7.08921 1.83337 8.50033 1.83337C9.91144 1.83337 11.1531 2.32782 12.2253 3.31671C13.2975 4.3056 13.8337 5.63337 13.8337 7.30004C13.8337 8.41115 13.392 9.61949 12.5087 10.925C11.6253 12.2306 10.2892 13.6445 8.50033 15.1667Z" fill="#201F1E"/>
</svg>
