<svg width="20" height="20" viewBox="0 0 20 20" fill="none" xmlns="http://www.w3.org/2000/svg">
<path d="M10 9.16667C9.76389 9.16667 9.56597 9.08681 9.40625 8.92708C9.24653 8.76736 9.16667 8.56944 9.16667 8.33333C9.16667 8.09722 9.24653 7.89931 9.40625 7.73958C9.56597 7.57986 9.76389 7.5 10 7.5C10.2361 7.5 10.434 7.57986 10.5938 7.73958C10.7535 7.89931 10.8333 8.09722 10.8333 8.33333C10.8333 8.56944 10.7535 8.76736 10.5938 8.92708C10.434 9.08681 10.2361 9.16667 10 9.16667ZM13.3333 9.16667C13.0972 9.16667 12.8993 9.08681 12.7396 8.92708C12.5799 8.76736 12.5 8.56944 12.5 8.33333C12.5 8.09722 12.5799 7.89931 12.7396 7.73958C12.8993 7.57986 13.0972 7.5 13.3333 7.5C13.5694 7.5 13.7674 7.57986 13.9271 7.73958C14.0868 7.89931 14.1667 8.09722 14.1667 8.33333C14.1667 8.56944 14.0868 8.76736 13.9271 8.92708C13.7674 9.08681 13.5694 9.16667 13.3333 9.16667ZM16.6667 9.16667C16.4306 9.16667 16.2326 9.08681 16.0729 8.92708C15.9132 8.76736 15.8333 8.56944 15.8333 8.33333C15.8333 8.09722 15.9132 7.89931 16.0729 7.73958C16.2326 7.57986 16.4306 7.5 16.6667 7.5C16.9028 7.5 17.1007 7.57986 17.2604 7.73958C17.4201 7.89931 17.5 8.09722 17.5 8.33333C17.5 8.56944 17.4201 8.76736 17.2604 8.92708C17.1007 9.08681 16.9028 9.16667 16.6667 9.16667ZM16.625 17.5C14.8889 17.5 13.1736 17.1215 11.4792 16.3646C9.78472 15.6076 8.24306 14.5347 6.85417 13.1458C5.46528 11.7569 4.39236 10.2153 3.63542 8.52083C2.87847 6.82639 2.5 5.11111 2.5 3.375C2.5 3.125 2.58333 2.91667 2.75 2.75C2.91667 2.58333 3.125 2.5 3.375 2.5H6.75C6.94444 2.5 7.11806 2.56597 7.27083 2.69792C7.42361 2.82986 7.51389 2.98611 7.54167 3.16667L8.08333 6.08333C8.11111 6.30556 8.10417 6.49306 8.0625 6.64583C8.02083 6.79861 7.94444 6.93056 7.83333 7.04167L5.8125 9.08333C6.09028 9.59722 6.42014 10.0938 6.80208 10.5729C7.18403 11.0521 7.60417 11.5139 8.0625 11.9583C8.49306 12.3889 8.94444 12.7882 9.41667 13.1562C9.88889 13.5243 10.3889 13.8611 10.9167 14.1667L12.875 12.2083C13 12.0833 13.1632 11.9896 13.3646 11.9271C13.566 11.8646 13.7639 11.8472 13.9583 11.875L16.8333 12.4583C17.0278 12.5139 17.1875 12.6146 17.3125 12.7604C17.4375 12.9062 17.5 13.0694 17.5 13.25V16.625C17.5 16.875 17.4167 17.0833 17.25 17.25C17.0833 17.4167 16.875 17.5 16.625 17.5ZM5.02083 7.5L6.39583 6.125L6.04167 4.16667H4.1875C4.25694 4.73611 4.35417 5.29861 4.47917 5.85417C4.60417 6.40972 4.78472 6.95833 5.02083 7.5ZM12.4792 14.9583C13.0208 15.1944 13.5729 15.3819 14.1354 15.5208C14.6979 15.6597 15.2639 15.75 15.8333 15.7917V13.9583L13.875 13.5625L12.4792 14.9583Z" fill="#5F6368"/>
</svg>
